<svg width="1292" height="333" viewBox="0 0 1292 333" fill="none" xmlns="http://www.w3.org/2000/svg">
<ellipse cx="163.389" cy="167.219" rx="163.389" ry="165.781" fill="#232020"/>
<mask id="mask0_8_29" style="mask-type:alpha" maskUnits="userSpaceOnUse" x="83" y="0" width="346" height="333">
<path d="M429 167.219C429 258.777 355.848 333 265.611 333C175.374 333 83.8938 166.535 83.8938 74.9764C83.8938 -16.5821 175.374 1.43751 265.611 1.43751C355.848 1.43751 429 75.6603 429 167.219Z" fill="#EBAD3F"/>
</mask>
<g mask="url(#mask0_8_29)">
<rect x="168.835" y="61.799" width="20.9473" height="21.254" fill="#D9D9D9"/>
<rect x="167.578" y="1.4375" width="261.422" height="151.541" fill="#FFBF00"/>
<rect x="167.578" y="106.22" width="260.165" height="46.7588" fill="#F5B800"/>
</g>
<rect x="149.982" y="1.4375" width="26.8125" height="153.029" fill="white"/>
<rect y="180.184" width="27.2051" height="326.777" transform="rotate(-90 0 180.184)" fill="white"/>
<mask id="path-8-inside-1_8_29" fill="white">
<ellipse cx="114.896" cy="82.0964" rx="23.7751" ry="24.1233"/>
</mask>
<ellipse cx="114.896" cy="82.0964" rx="23.7751" ry="24.1233" fill="#232020"/>
<path d="M98.6709 82.0964C98.6709 73.8782 105.389 66.2197 114.896 66.2197V146.22C150.664 146.22 178.671 116.961 178.671 82.0964H98.6709ZM114.896 66.2197C124.403 66.2197 131.121 73.8782 131.121 82.0964H51.1206C51.1206 116.961 79.1275 146.22 114.896 146.22V66.2197ZM131.121 82.0964C131.121 90.3147 124.403 97.9731 114.896 97.9731V17.9731C79.1275 17.9731 51.1206 47.2323 51.1206 82.0964H131.121ZM114.896 97.9731C105.389 97.9731 98.6709 90.3147 98.6709 82.0964H178.671C178.671 47.2323 150.664 17.9731 114.896 17.9731V97.9731Z" fill="white" mask="url(#path-8-inside-1_8_29)"/>
<path d="M352.998 186.949V181.182H424.34V186.949H391.776V283H385.561V186.949H352.998ZM462.161 284.591C455.864 284.591 450.263 282.901 445.357 279.52C440.452 276.106 436.591 271.416 433.773 265.45C430.956 259.484 429.548 252.69 429.548 245.067C429.548 237.411 430.956 230.616 433.773 224.683C436.591 218.717 440.452 214.027 445.357 210.614C450.263 207.2 455.864 205.493 462.161 205.493C468.459 205.493 474.06 207.2 478.965 210.614C483.871 214.027 487.732 218.717 490.549 224.683C493.366 230.649 494.775 237.444 494.775 245.067C494.775 252.69 493.366 259.484 490.549 265.45C487.732 271.416 483.871 276.106 478.965 279.52C474.06 282.901 468.459 284.591 462.161 284.591ZM462.161 278.973C467.497 278.973 472.154 277.465 476.131 274.449C480.142 271.433 483.241 267.356 485.428 262.219C487.649 257.081 488.759 251.364 488.759 245.067C488.759 238.769 487.649 233.069 485.428 227.964C483.208 222.827 480.109 218.75 476.131 215.734C472.154 212.685 467.497 211.161 462.161 211.161C456.825 211.161 452.168 212.685 448.191 215.734C444.214 218.75 441.115 222.827 438.894 227.964C436.674 233.069 435.563 238.769 435.563 245.067C435.563 251.364 436.657 257.081 438.844 262.219C441.065 267.356 444.164 271.433 448.141 274.449C452.152 277.465 456.825 278.973 462.161 278.973ZM564.588 255.905V206.636H570.654V283H564.588V270.621H564.091C562.301 274.565 559.401 277.78 555.391 280.266C551.414 282.751 546.707 283.994 541.272 283.994C536.267 283.994 531.842 282.901 527.998 280.713C524.153 278.526 521.137 275.427 518.949 271.416C516.762 267.373 515.668 262.567 515.668 256.999V206.636H521.733V256.75C521.733 263.114 523.656 268.268 527.5 272.212C531.378 276.123 536.383 278.078 542.515 278.078C546.492 278.078 550.154 277.183 553.502 275.393C556.849 273.604 559.534 271.052 561.556 267.737C563.578 264.39 564.588 260.446 564.588 255.905ZM624.422 284.591C617.925 284.591 612.208 282.884 607.27 279.47C602.331 276.023 598.47 271.317 595.686 265.351C592.935 259.385 591.559 252.624 591.559 245.067C591.559 237.51 592.951 230.749 595.735 224.783C598.52 218.817 602.381 214.11 607.319 210.663C612.258 207.216 617.942 205.493 624.372 205.493C629.211 205.493 633.619 206.487 637.596 208.476C641.607 210.464 644.921 213.232 647.539 216.778C650.191 220.325 651.881 224.435 652.61 229.108H646.446C645.451 223.937 642.966 219.662 638.988 216.281C635.044 212.867 630.189 211.161 624.422 211.161C619.251 211.161 614.644 212.619 610.6 215.536C606.557 218.419 603.375 222.413 601.055 227.517C598.735 232.588 597.575 238.405 597.575 244.967C597.575 251.43 598.702 257.231 600.956 262.368C603.209 267.472 606.358 271.516 610.402 274.499C614.445 277.482 619.118 278.973 624.422 278.973C628.167 278.973 631.581 278.227 634.663 276.736C637.779 275.244 640.38 273.123 642.468 270.372C644.556 267.621 645.932 264.406 646.595 260.727H652.76C652.03 265.434 650.373 269.577 647.788 273.156C645.203 276.736 641.905 279.536 637.895 281.558C633.884 283.58 629.393 284.591 624.422 284.591ZM693.676 284.641C689.268 284.641 685.224 283.762 681.545 282.006C677.899 280.249 674.966 277.68 672.745 274.3C670.558 270.919 669.464 266.809 669.464 261.97C669.464 258.788 670.028 255.988 671.154 253.568C672.281 251.149 674.021 249.061 676.375 247.304C678.728 245.547 681.744 244.106 685.423 242.979C689.102 241.819 693.493 240.924 698.598 240.294C702.475 239.83 705.939 239.383 708.988 238.952C712.038 238.488 714.424 237.775 716.147 236.814C717.904 235.853 718.782 234.394 718.782 232.439V229.257C718.782 223.689 717.026 219.264 713.512 215.983C709.999 212.702 705.16 211.061 698.995 211.061C693.527 211.061 688.92 212.271 685.174 214.69C681.462 217.077 678.86 220.159 677.369 223.938L671.652 221.8C673.11 218.154 675.215 215.121 677.966 212.702C680.75 210.282 683.931 208.476 687.511 207.283C691.124 206.089 694.902 205.493 698.846 205.493C702.26 205.493 705.508 205.973 708.591 206.935C711.706 207.896 714.474 209.354 716.893 211.31C719.346 213.265 721.285 215.768 722.71 218.817C724.135 221.833 724.848 225.446 724.848 229.655V283H718.782V269.229H718.335C717.009 272.079 715.186 274.681 712.866 277.034C710.579 279.354 707.812 281.21 704.564 282.602C701.349 283.961 697.719 284.641 693.676 284.641ZM694.272 279.023C699.045 279.023 703.271 277.863 706.95 275.543C710.662 273.189 713.562 269.974 715.65 265.898C717.738 261.821 718.782 257.197 718.782 252.027V240.791C718.02 241.454 716.91 242.051 715.451 242.581C714.026 243.078 712.402 243.526 710.579 243.923C708.789 244.288 706.9 244.619 704.912 244.918C702.956 245.183 701.05 245.431 699.194 245.663C693.626 246.326 689.085 247.354 685.572 248.746C682.092 250.105 679.54 251.894 677.916 254.115C676.325 256.336 675.529 259.02 675.529 262.169C675.529 267.373 677.319 271.482 680.899 274.499C684.478 277.515 688.936 279.023 694.272 279.023ZM756.343 233.483V283H750.277V206.636H756.194V218.717H756.79C758.58 214.773 761.447 211.608 765.391 209.222C769.335 206.835 774.025 205.642 779.461 205.642C784.598 205.642 789.105 206.736 792.983 208.923C796.894 211.111 799.944 214.226 802.131 218.27C804.352 222.28 805.462 227.07 805.462 232.638V283H799.397V232.886C799.397 226.39 797.458 221.17 793.58 217.226C789.735 213.249 784.648 211.26 778.317 211.26C774.075 211.26 770.296 212.188 766.982 214.044C763.667 215.9 761.066 218.502 759.176 221.849C757.287 225.164 756.343 229.042 756.343 233.483ZM873.374 283V181.182H927.664V184.364H876.556V230.5H924.681V233.682H876.556V279.818H929.056V283H873.374ZM955.927 231.693V283H952.745V206.636H955.927V218.767H956.325C958.115 214.79 961.048 211.608 965.125 209.222C969.234 206.835 973.924 205.642 979.194 205.642C984.298 205.642 988.806 206.752 992.717 208.973C996.628 211.194 999.694 214.259 1001.91 218.17C1004.14 222.081 1005.25 226.589 1005.25 231.693V283H1002.06V231.693C1002.06 224.932 999.942 219.43 995.7 215.188C991.458 210.945 985.956 208.824 979.194 208.824C974.687 208.824 970.676 209.802 967.163 211.757C963.683 213.713 960.932 216.414 958.91 219.861C956.922 223.308 955.927 227.252 955.927 231.693ZM1058.17 313.227C1053.89 313.227 1049.95 312.647 1046.34 311.487C1042.72 310.36 1039.61 308.653 1036.99 306.366C1034.37 304.113 1032.42 301.295 1031.12 297.915L1034.11 296.722C1035.27 299.705 1036.99 302.174 1039.28 304.129C1041.6 306.118 1044.36 307.593 1047.58 308.554C1050.83 309.548 1054.36 310.045 1058.17 310.045C1066.12 310.045 1072.32 307.941 1076.76 303.732C1081.2 299.555 1083.42 293.175 1083.42 284.591V263.909H1083.03C1081.7 268.152 1079.73 271.698 1077.11 274.548C1074.49 277.366 1071.46 279.487 1068.01 280.912C1064.56 282.304 1060.95 283 1057.17 283C1051.21 283 1046.02 281.393 1041.61 278.178C1037.2 274.963 1033.79 270.505 1031.37 264.804C1028.95 259.103 1027.74 252.508 1027.74 245.017C1027.74 237.46 1028.94 230.699 1031.32 224.733C1033.71 218.767 1037.1 214.061 1041.51 210.614C1045.92 207.167 1051.14 205.443 1057.17 205.443C1061.28 205.443 1065.03 206.288 1068.41 207.979C1071.79 209.636 1074.72 212.022 1077.21 215.138C1079.69 218.22 1081.63 221.883 1083.03 226.125H1083.42V206.636H1086.61V284.591C1086.61 290.855 1085.46 296.108 1083.18 300.351C1080.89 304.626 1077.62 307.841 1073.38 309.996C1069.14 312.15 1064.07 313.227 1058.17 313.227ZM1057.17 279.818C1062.48 279.818 1067.08 278.41 1070.99 275.592C1074.94 272.775 1077.99 268.765 1080.14 263.561C1082.33 258.324 1083.42 252.143 1083.42 245.017C1083.42 238.123 1082.36 231.942 1080.24 226.473C1078.12 220.971 1075.09 216.629 1071.14 213.447C1067.23 210.232 1062.58 208.625 1057.17 208.625C1051.77 208.625 1047.1 210.232 1043.15 213.447C1039.24 216.629 1036.23 220.971 1034.11 226.473C1031.98 231.942 1030.92 238.123 1030.92 245.017C1030.92 251.911 1031.98 257.976 1034.11 263.213C1036.26 268.417 1039.29 272.493 1043.2 275.443C1047.15 278.36 1051.8 279.818 1057.17 279.818ZM1114.47 283V206.636H1117.65V283H1114.47ZM1116.06 192.716C1115.2 192.716 1114.45 192.401 1113.82 191.771C1113.2 191.142 1112.88 190.396 1112.88 189.534C1112.88 188.672 1113.2 187.927 1113.82 187.297C1114.45 186.667 1115.2 186.352 1116.06 186.352C1116.92 186.352 1117.67 186.667 1118.3 187.297C1118.93 187.927 1119.24 188.672 1119.24 189.534C1119.24 190.396 1118.93 191.142 1118.3 191.771C1117.67 192.401 1116.92 192.716 1116.06 192.716ZM1148.29 231.693V283H1145.11V206.636H1148.29V218.767H1148.69C1150.48 214.79 1153.41 211.608 1157.49 209.222C1161.6 206.835 1166.29 205.642 1171.56 205.642C1176.66 205.642 1181.17 206.752 1185.08 208.973C1188.99 211.194 1192.06 214.259 1194.28 218.17C1196.5 222.081 1197.61 226.589 1197.61 231.693V283H1194.43V231.693C1194.43 224.932 1192.31 219.43 1188.06 215.188C1183.82 210.945 1178.32 208.824 1171.56 208.824C1167.05 208.824 1163.04 209.802 1159.53 211.757C1156.05 213.713 1153.3 216.414 1151.27 219.861C1149.28 223.308 1148.29 227.252 1148.29 231.693ZM1253.32 284.591C1246.65 284.591 1240.82 282.851 1235.82 279.371C1230.84 275.891 1226.98 271.168 1224.23 265.202C1221.48 259.236 1220.11 252.508 1220.11 245.017C1220.11 237.527 1221.48 230.798 1224.23 224.832C1227.02 218.866 1230.79 214.143 1235.57 210.663C1240.34 207.183 1245.73 205.443 1251.72 205.443C1256.17 205.443 1260.28 206.388 1264.05 208.277C1267.87 210.166 1271.18 212.785 1274 216.132C1276.81 219.48 1279 223.341 1280.56 227.716C1282.15 232.058 1282.95 236.698 1282.95 241.636V244.818H1221.7V241.636H1279.76C1279.76 235.505 1278.5 229.953 1275.99 224.982C1273.47 219.977 1270.09 216 1265.84 213.05C1261.6 210.1 1256.89 208.625 1251.72 208.625C1246.49 208.625 1241.75 210.183 1237.51 213.298C1233.26 216.414 1229.87 220.656 1227.31 226.026C1224.76 231.395 1223.42 237.46 1223.29 244.222V244.619C1223.29 251.281 1224.45 257.413 1226.77 263.014C1229.12 268.582 1232.53 273.04 1237.01 276.388C1241.48 279.735 1246.92 281.409 1253.32 281.409C1258.02 281.409 1261.97 280.58 1265.15 278.923C1268.36 277.266 1270.93 275.36 1272.85 273.206C1274.81 271.052 1276.25 269.212 1277.18 267.688L1279.76 269.477C1278.64 271.4 1276.95 273.537 1274.69 275.891C1272.44 278.244 1269.56 280.282 1266.04 282.006C1262.53 283.729 1258.29 284.591 1253.32 284.591Z" fill="#232020"/>
</svg>
